# xmcd CD database file generated by libcdaudio 0.99.6
# 
# Track frame offsets:
#       150
#       15663
#       29403
#       56117
#       75701
# 
# Disc length: 1202 seconds
# 
# Revision: 1
# Processed by: cddbd v1.5.2PL0 Copyright (c) Steve Scherf et al.
# Submitted via: libcdaudio 0.99.6
# 
DISCID=3704b005
DTITLE=The Lascivious Biddies - 
DYEAR=1900
DGENRE=
TTITLE0=Diamonds are a girl's best friend
TTITLE1=The one they call Jones
TTITLE2=Odd Bird
TTITLE3=Last night in Shelburne
TTITLE4=To keep my love alive
EXTD=
EXTT0=
EXTT1=
EXTT2=
EXTT3=
EXTT4=
PLAYORDER=
